<?xml version="1.0" encoding="UTF-8"?>
<!DOCTYPE svg PUBLIC "-//W3C//DTD SVG 1.1//EN" "http://www.w3.org/Graphics/SVG/1.1/DTD/svg11.dtd">
<!-- Creator: CorelDRAW 2019 (64-Bit) -->
<svg xmlns="http://www.w3.org/2000/svg" xml:space="preserve" width="193px" height="67px" version="1.1" style="shape-rendering:geometricPrecision; text-rendering:geometricPrecision; image-rendering:optimizeQuality; fill-rule:evenodd; clip-rule:evenodd"
viewBox="0 0 193 67"
 xmlns:xlink="http://www.w3.org/1999/xlink">
 <defs>
  <style type="text/css">
   <![CDATA[
    .fil0 {fill:black;fill-rule:nonzero}
   ]]>
  </style>
 </defs>
 <g id="Capa_x0020_1">
  <metadata id="CorelCorpID_0Corel-Layer"/>
  <g id="_394549917408">
   <path class="fil0" d="M9.59 66.85l-9.93 0 0 -20.13 9.59 0 0 3.06 -6.13 0 0 5.39 4.94 0 0 3.06 -4.94 0 0 5.56 6.47 0 0 3.06zm1.42 -1.61l1.61 -2.95c1.05,1.13 2.21,1.7 3.49,1.7 0.74,0 1.34,-0.23 1.79,-0.7 0.45,-0.46 0.68,-1.06 0.68,-1.8 0,-0.49 -0.13,-0.94 -0.4,-1.36 -0.26,-0.41 -0.6,-0.78 -1.02,-1.09 -0.41,-0.31 -0.87,-0.62 -1.37,-0.94 -0.5,-0.31 -1,-0.65 -1.51,-1.02 -0.5,-0.37 -0.96,-0.77 -1.37,-1.2 -0.42,-0.44 -0.76,-0.98 -1.02,-1.62 -0.27,-0.64 -0.4,-1.36 -0.4,-2.16 0,-1.66 0.54,-3.03 1.62,-4.11 1.08,-1.08 2.53,-1.62 4.37,-1.62 1.68,0 3.16,0.45 4.45,1.34l-1.25 3.06c-0.36,-0.3 -0.85,-0.57 -1.48,-0.81 -0.62,-0.23 -1.18,-0.35 -1.67,-0.35 -0.81,0 -1.44,0.23 -1.9,0.69 -0.45,0.47 -0.68,1.06 -0.68,1.78 0,1.15 0.83,2.21 2.5,3.17 0.66,0.36 1.2,0.68 1.61,0.97 0.42,0.28 0.89,0.67 1.42,1.17 0.53,0.51 0.93,1.09 1.19,1.75 0.27,0.66 0.4,1.4 0.4,2.21 0,1.67 -0.51,3.05 -1.53,4.17 -1.02,1.12 -2.46,1.67 -4.31,1.67 -2.04,0 -3.78,-0.65 -5.22,-1.95zm17.19 1.61l-3.46 0 0 -20.13 5.73 0c1.74,0 3.16,0.61 4.28,1.84 1.11,1.23 1.67,2.81 1.67,4.74 0,1.94 -0.56,3.53 -1.67,4.76 -1.12,1.23 -2.54,1.84 -4.28,1.84l-2.27 0 0 6.95zm0 -17.07l0 7.06 1.67 0c0.93,0 1.66,-0.32 2.21,-0.96 0.55,-0.65 0.82,-1.51 0.82,-2.58 0,-1.06 -0.27,-1.91 -0.83,-2.56 -0.56,-0.64 -1.27,-0.96 -2.14,-0.96l-1.73 0zm11.4 17.07l-3.46 0 5.27 -20.13 3.75 0 5.3 20.13 -3.46 0 -1.25 -5.19 -4.93 0 -1.22 5.19zm3.09 -13.5l-1.3 5.42 3.83 0 -1.28 -5.42 -0.6 -3.12 -0.08 0c-0.19,1.19 -0.38,2.23 -0.57,3.12zm17.3 -6.98c2.01,0 3.64,0.56 4.91,1.68l-1.45 2.98c-0.34,-0.4 -0.83,-0.73 -1.47,-1 -0.65,-0.26 -1.27,-0.39 -1.87,-0.39 -1.69,0 -3.01,0.66 -3.98,1.98 -0.94,1.34 -1.41,3.01 -1.41,4.99 0,2.05 0.48,3.78 1.44,5.19 0.99,1.42 2.28,2.13 3.89,2.13 1.28,0 2.53,-0.49 3.74,-1.47l1.42 2.92c-1.46,1.21 -3.26,1.81 -5.42,1.81 -2.66,0 -4.77,-0.97 -6.32,-2.92 -1.53,-1.95 -2.3,-4.45 -2.3,-7.51 0,-3.05 0.79,-5.54 2.36,-7.49 1.58,-1.93 3.74,-2.9 6.46,-2.9zm10.92 20.48l-3.46 0 0 -20.13 3.46 0 0 20.13zm2.78 -10.21c0,-3.02 0.74,-5.49 2.22,-7.4 1.47,-1.91 3.44,-2.87 5.89,-2.87 2.46,0 4.43,0.96 5.9,2.87 1.48,1.91 2.22,4.39 2.22,7.43 0,3.12 -0.74,5.65 -2.22,7.6 -1.47,1.95 -3.44,2.92 -5.9,2.92 -2.47,0 -4.45,-0.97 -5.92,-2.92 -1.46,-1.96 -2.19,-4.51 -2.19,-7.63zm3.55 0c0,2.21 0.4,3.97 1.22,5.28 0.81,1.3 1.93,1.96 3.34,1.96 1.4,0 2.51,-0.65 3.32,-1.95 0.82,-1.29 1.22,-3.05 1.22,-5.26 0,-2.15 -0.4,-3.86 -1.2,-5.1 -0.81,-1.25 -1.92,-1.88 -3.34,-1.88 -1.41,0 -2.53,0.63 -3.34,1.88 -0.82,1.24 -1.22,2.94 -1.22,5.07zm24.53 10.21l-3.46 0 0 -20.13 5.73 0c1.74,0 3.17,0.61 4.28,1.84 1.12,1.23 1.68,2.81 1.68,4.74 0,1.94 -0.56,3.53 -1.68,4.76 -1.11,1.23 -2.54,1.84 -4.28,1.84l-2.27 0 0 6.95zm0 -17.07l0 7.06 1.68 0c0.92,0 1.66,-0.32 2.21,-0.96 0.55,-0.65 0.82,-1.51 0.82,-2.58 0,-1.06 -0.28,-1.91 -0.84,-2.56 -0.55,-0.64 -1.27,-0.96 -2.14,-0.96l-1.73 0zm10.47 10.58l0 -13.64 3.43 0 0 13.61c0,2.44 0.99,3.66 2.98,3.66 1.98,0 2.98,-1.22 2.98,-3.66l0 -13.61 3.46 0 0 13.64c0,2.1 -0.58,3.76 -1.75,4.99 -1.16,1.23 -2.72,1.84 -4.66,1.84 -1.99,0 -3.56,-0.6 -4.71,-1.81 -1.16,-1.21 -1.73,-2.89 -1.73,-5.02zm7.54 -14.98l-2.66 0 1.73 -3.88 3.4 0 -2.47 3.88zm14.35 21.47l-5.55 0 0 -20.13 5.44 0c1.67,0 3,0.46 4.01,1.39 1.02,0.92 1.52,2.19 1.52,3.8 0,0.94 -0.21,1.8 -0.62,2.56 -0.42,0.77 -0.99,1.35 -1.73,1.75l0 0.05c0.96,0.33 1.71,0.91 2.22,1.76 0.52,0.85 0.79,1.86 0.79,3.01 0,1.91 -0.54,3.36 -1.61,4.34 -1.07,0.98 -2.56,1.47 -4.47,1.47zm-2.09 -17.07l0 5.19 2.12 0c0.57,0 1.02,-0.25 1.36,-0.75 0.35,-0.5 0.52,-1.13 0.52,-1.89 0,-0.79 -0.19,-1.42 -0.57,-1.87 -0.38,-0.45 -0.9,-0.68 -1.56,-0.68l-1.87 0zm0 8.05l0 5.96 2.04 0c0.85,0 1.49,-0.26 1.93,-0.78 0.43,-0.52 0.65,-1.24 0.65,-2.17 0,-0.91 -0.2,-1.63 -0.6,-2.18 -0.39,-0.55 -0.92,-0.83 -1.58,-0.83l-2.44 0zm20.84 9.02l-9.95 0 0 -20.13 3.46 0 0 17.07 6.49 0 0 3.06zm5.59 0l-3.46 0 0 -20.13 3.46 0 0 20.13zm11.6 -20.48c2.01,0 3.64,0.56 4.91,1.68l-1.45 2.98c-0.34,-0.4 -0.83,-0.73 -1.47,-1 -0.64,-0.26 -1.27,-0.39 -1.87,-0.39 -1.69,0 -3.01,0.66 -3.98,1.98 -0.94,1.34 -1.41,3.01 -1.41,4.99 0,2.05 0.48,3.78 1.44,5.19 0.99,1.42 2.28,2.13 3.89,2.13 1.29,0 2.53,-0.49 3.74,-1.47l1.42 2.92c-1.45,1.21 -3.26,1.81 -5.42,1.81 -2.66,0 -4.77,-0.97 -6.32,-2.92 -1.53,-1.95 -2.3,-4.45 -2.3,-7.51 0,-3.05 0.79,-5.54 2.35,-7.49 1.59,-1.93 3.75,-2.9 6.47,-2.9zm6.04 10.27c0,-3.02 0.74,-5.49 2.22,-7.4 1.47,-1.91 3.44,-2.87 5.9,-2.87 2.45,0 4.42,0.96 5.9,2.87 1.47,1.91 2.21,4.39 2.21,7.43 0,3.12 -0.74,5.65 -2.21,7.6 -1.48,1.95 -3.45,2.92 -5.9,2.92 -2.48,0 -4.46,-0.97 -5.93,-2.92 -1.46,-1.96 -2.19,-4.51 -2.19,-7.63zm3.55 0c0,2.21 0.41,3.97 1.22,5.28 0.81,1.3 1.93,1.96 3.35,1.96 1.4,0 2.5,-0.65 3.31,-1.95 0.82,-1.29 1.22,-3.05 1.22,-5.26 0,-2.15 -0.4,-3.86 -1.2,-5.1 -0.81,-1.25 -1.92,-1.88 -3.33,-1.88 -1.42,0 -2.54,0.63 -3.35,1.88 -0.81,1.24 -1.22,2.94 -1.22,5.07z"/>
   <path class="fil0" d="M3.72 9.69l-2.43 0 0 -8.74 2.43 0c1.09,0 1.95,0.39 2.57,1.16 0.63,0.77 0.95,1.84 0.95,3.2 0,1.37 -0.32,2.45 -0.95,3.23 -0.62,0.77 -1.48,1.15 -2.57,1.15zm-0.92 -7.4l0 6.06 0.86 0c0.65,0 1.15,-0.26 1.5,-0.79 0.35,-0.52 0.53,-1.27 0.53,-2.25 0,-0.96 -0.18,-1.7 -0.54,-2.23 -0.35,-0.52 -0.85,-0.79 -1.49,-0.79l-0.86 0zm9.97 7.4l-4.31 0 0 -8.74 4.16 0 0 1.33 -2.66 0 0 2.34 2.14 0 0 1.33 -2.14 0 0 2.41 2.81 0 0 1.33zm2.63 0l-1.5 0 0 -8.74 2.49 0c0.75,0 1.37,0.27 1.85,0.8 0.49,0.54 0.73,1.22 0.73,2.06 0,0.84 -0.24,1.53 -0.73,2.07 -0.48,0.53 -1.1,0.8 -1.85,0.8l-0.99 0 0 3.01zm0 -7.41l0 3.07 0.73 0c0.4,0 0.72,-0.14 0.96,-0.42 0.24,-0.28 0.35,-0.65 0.35,-1.12 0,-0.46 -0.12,-0.83 -0.36,-1.11 -0.24,-0.28 -0.55,-0.42 -0.93,-0.42l-0.75 0zm4.95 7.41l-1.5 0 2.29 -8.74 1.62 0 2.3 8.74 -1.5 0 -0.54 -2.25 -2.14 0 -0.53 2.25zm1.34 -5.86l-0.56 2.35 1.66 0 -0.56 -2.35 -0.26 -1.35 -0.03 0c-0.08,0.52 -0.17,0.97 -0.25,1.35zm5.73 5.86l-1.51 0 0 -8.74 2.54 0c0.41,0 0.79,0.09 1.15,0.27 0.4,0.2 0.72,0.5 0.96,0.91 0.23,0.4 0.35,0.88 0.35,1.42 0,0.53 -0.12,1 -0.35,1.43 -0.24,0.44 -0.55,0.76 -0.93,0.97l0 0.03c0.09,0.13 0.18,0.28 0.26,0.46l1.45 3.25 -1.65 0 -1.33 -3.26 -0.94 0 0 3.26zm0 -7.4l0 2.81 0.8 0c0.32,0 0.6,-0.13 0.83,-0.39 0.22,-0.27 0.34,-0.61 0.34,-1.04 0,-0.54 -0.16,-0.93 -0.47,-1.17 -0.22,-0.14 -0.44,-0.21 -0.68,-0.21l-0.82 0zm7.69 7.4l-1.49 0 0 -7.41 -2.1 0 0 -1.33 5.71 0 0 1.33 -2.12 0 0 7.41zm3.18 0l-1.51 0 2.29 -8.74 1.63 0 2.3 8.74 -1.5 0 -0.54 -2.25 -2.14 0 -0.53 2.25zm1.34 -5.86l-0.57 2.35 1.66 0 -0.55 -2.35 -0.26 -1.35 -0.04 0c-0.08,0.52 -0.16,0.97 -0.24,1.35zm5.37 5.86l-1.41 0 0.57 -8.74 1.65 0 1.18 4.25 0.27 1.33 0.04 0c0.11,-0.61 0.2,-1.05 0.27,-1.33l1.18 -4.25 1.65 0 0.55 8.74 -1.39 0 -0.29 -4.86c-0.02,-0.43 -0.02,-0.81 0,-1.13l0.01 -0.22 -0.04 0c-0.11,0.59 -0.21,1.06 -0.29,1.4l-0.94 3.31 -1.46 0 -0.94 -3.31 -0.28 -1.4 -0.05 0 0 0.22c0,0.02 0,0.06 0,0.11 0.01,0.05 0.01,0.11 0.02,0.2 0,0.08 0,0.15 0,0.22 0.01,0.19 0.01,0.4 -0.01,0.6l-0.29 4.86zm11.59 0l-4.31 0 0 -8.74 4.16 0 0 1.33 -2.65 0 0 2.34 2.14 0 0 1.33 -2.14 0 0 2.41 2.8 0 0 1.33zm2.55 0l-1.42 0 0 -8.74 1.58 0 2.25 4.95c0.1,0.22 0.23,0.59 0.38,1.11l0.07 0.22 0.05 0c-0.06,-0.52 -0.09,-0.96 -0.09,-1.34l0 -4.94 1.4 0 0 8.74 -1.56 0 -2.25 -4.96c-0.11,-0.26 -0.24,-0.63 -0.38,-1.12l-0.07 -0.21 -0.05 0c0.06,0.52 0.09,0.97 0.09,1.34l0 4.95zm8.75 0l-1.49 0 0 -7.41 -2.1 0 0 -1.33 5.71 0 0 1.33 -2.12 0 0 7.41zm2.26 -4.43c0,-1.31 0.32,-2.38 0.96,-3.21 0.64,-0.83 1.49,-1.24 2.56,-1.24 1.06,0 1.92,0.41 2.56,1.24 0.64,0.83 0.96,1.9 0.96,3.22 0,1.36 -0.32,2.46 -0.96,3.3 -0.64,0.85 -1.5,1.27 -2.56,1.27 -1.08,0 -1.94,-0.42 -2.58,-1.27 -0.63,-0.85 -0.94,-1.95 -0.94,-3.31zm1.53 0c0,0.96 0.18,1.73 0.53,2.29 0.36,0.57 0.84,0.85 1.46,0.85 0.6,0 1.08,-0.28 1.44,-0.84 0.35,-0.56 0.53,-1.33 0.53,-2.29 0,-0.93 -0.18,-1.67 -0.53,-2.21 -0.35,-0.54 -0.83,-0.81 -1.44,-0.81 -0.62,0 -1.1,0.27 -1.46,0.81 -0.35,0.54 -0.53,1.27 -0.53,2.2zm9.63 4.43l-1.5 0 2.29 -8.74 1.62 0 2.31 8.74 -1.51 0 -0.54 -2.25 -2.14 0 -0.53 2.25zm1.34 -5.86l-0.56 2.35 1.66 0 -0.56 -2.35 -0.25 -1.35 -0.04 0c-0.08,0.52 -0.16,0.97 -0.25,1.35zm6.65 5.86l-2.42 0 0 -8.74 2.42 0c1.09,0 1.95,0.39 2.57,1.16 0.64,0.77 0.95,1.84 0.95,3.2 0,1.37 -0.31,2.45 -0.95,3.23 -0.62,0.77 -1.48,1.15 -2.57,1.15zm-0.92 -7.4l0 6.06 0.86 0c0.65,0 1.15,-0.26 1.5,-0.79 0.35,-0.52 0.53,-1.27 0.53,-2.25 0,-0.96 -0.18,-1.7 -0.53,-2.23 -0.36,-0.52 -0.86,-0.79 -1.5,-0.79l-0.86 0zm6.81 7.4l-1.41 0 0.57 -8.74 1.65 0 1.18 4.25 0.27 1.33 0.04 0c0.11,-0.61 0.2,-1.05 0.27,-1.33l1.18 -4.25 1.65 0 0.55 8.74 -1.39 0 -0.29 -4.86c-0.02,-0.43 -0.02,-0.81 0,-1.13l0.01 -0.22 -0.04 0c-0.11,0.59 -0.21,1.06 -0.29,1.4l-0.94 3.31 -1.46 0 -0.94 -3.31 -0.28 -1.4 -0.05 0 0 0.22c0,0.02 0,0.06 0,0.11 0.01,0.05 0.01,0.11 0.02,0.2 0,0.08 0,0.15 0,0.22 0.01,0.19 0.01,0.4 -0.01,0.6l-0.29 4.86zm8.79 0l-1.51 0 0 -8.74 1.51 0 0 8.74zm2.99 0l-1.42 0 0 -8.74 1.58 0 2.25 4.95c0.1,0.22 0.22,0.59 0.38,1.11l0.06 0.22 0.05 0c-0.06,-0.52 -0.08,-0.96 -0.08,-1.34l0 -4.94 1.4 0 0 8.74 -1.56 0 -2.26 -4.96c-0.1,-0.26 -0.23,-0.63 -0.38,-1.12l-0.06 -0.21 -0.05 0c0.06,0.52 0.09,0.97 0.09,1.34l0 4.95zm7.3 0l-1.5 0 0 -8.74 1.5 0 0 8.74zm1.06 -0.7l0.7 -1.28c0.45,0.49 0.95,0.74 1.51,0.74 0.32,0 0.58,-0.1 0.78,-0.3 0.19,-0.2 0.29,-0.46 0.29,-0.78 0,-0.22 -0.06,-0.41 -0.17,-0.59 -0.12,-0.18 -0.26,-0.34 -0.44,-0.48 -0.18,-0.13 -0.38,-0.27 -0.6,-0.41 -0.22,-0.13 -0.43,-0.28 -0.65,-0.44 -0.22,-0.16 -0.42,-0.33 -0.6,-0.52 -0.18,-0.19 -0.33,-0.42 -0.44,-0.7 -0.12,-0.28 -0.18,-0.59 -0.18,-0.94 0,-0.72 0.24,-1.32 0.71,-1.78 0.46,-0.47 1.1,-0.7 1.89,-0.7 0.73,0 1.38,0.19 1.93,0.57l-0.54 1.33c-0.15,-0.13 -0.37,-0.25 -0.64,-0.35 -0.27,-0.1 -0.51,-0.15 -0.72,-0.15 -0.36,0 -0.63,0.1 -0.83,0.3 -0.19,0.2 -0.29,0.46 -0.29,0.77 0,0.5 0.36,0.96 1.08,1.38 0.29,0.15 0.52,0.29 0.7,0.42 0.18,0.12 0.39,0.29 0.62,0.51 0.23,0.22 0.4,0.47 0.51,0.75 0.12,0.29 0.18,0.61 0.18,0.97 0,0.72 -0.23,1.32 -0.67,1.8 -0.44,0.49 -1.07,0.73 -1.87,0.73 -0.89,0 -1.64,-0.28 -2.26,-0.85zm8.91 0.7l-1.49 0 0 -7.41 -2.11 0 0 -1.33 5.72 0 0 1.33 -2.12 0 0 7.41zm4.55 0l-1.5 0 0 -8.74 2.54 0c0.41,0 0.79,0.09 1.14,0.27 0.4,0.2 0.72,0.5 0.96,0.91 0.24,0.4 0.36,0.88 0.36,1.42 0,0.53 -0.12,1 -0.36,1.43 -0.24,0.44 -0.54,0.76 -0.92,0.97l0 0.03c0.09,0.13 0.18,0.28 0.26,0.46l1.45 3.25 -1.65 0 -1.33 -3.26 -0.95 0 0 3.26zm0 -7.4l0 2.81 0.8 0c0.33,0 0.61,-0.13 0.83,-0.39 0.23,-0.27 0.34,-0.61 0.34,-1.04 0,-0.54 -0.15,-0.93 -0.46,-1.17 -0.22,-0.14 -0.44,-0.21 -0.68,-0.21l-0.83 0zm5.63 7.4l-1.5 0 2.29 -8.74 1.62 0 2.3 8.74 -1.5 0 -0.54 -2.25 -2.14 0 -0.53 2.25zm1.34 -5.86l-0.57 2.35 1.67 0 -0.56 -2.35 -0.26 -1.35 -0.03 0c-0.08,0.52 -0.17,0.97 -0.25,1.35zm6.53 5.86l-1.49 0 0 -7.41 -2.11 0 0 -1.33 5.71 0 0 1.33 -2.11 0 0 7.41zm4.55 0l-1.5 0 0 -8.74 1.5 0 0 8.74zm4.76 0l-1.53 0 -2.42 -8.74 1.61 0 1.35 5.69 0.21 1.27 0.05 0c0.06,-0.52 0.14,-0.94 0.22,-1.27l1.34 -5.69 1.59 0 -2.42 8.74zm2.72 -4.43c0,-1.31 0.32,-2.38 0.96,-3.21 0.65,-0.83 1.5,-1.24 2.57,-1.24 1.06,0 1.92,0.41 2.56,1.24 0.64,0.83 0.96,1.9 0.96,3.22 0,1.36 -0.32,2.46 -0.96,3.3 -0.64,0.85 -1.5,1.27 -2.56,1.27 -1.08,0 -1.94,-0.42 -2.58,-1.27 -0.63,-0.85 -0.95,-1.95 -0.95,-3.31zm1.54 0c0,0.96 0.18,1.73 0.53,2.29 0.36,0.57 0.84,0.85 1.46,0.85 0.6,0 1.08,-0.28 1.44,-0.84 0.35,-0.56 0.53,-1.33 0.53,-2.29 0,-0.93 -0.18,-1.67 -0.53,-2.21 -0.35,-0.54 -0.83,-0.81 -1.44,-0.81 -0.62,0 -1.1,0.27 -1.46,0.81 -0.35,0.54 -0.53,1.27 -0.53,2.2zm11.58 4.43l-2.43 0 0 -8.74 2.43 0c1.09,0 1.94,0.39 2.57,1.16 0.63,0.77 0.95,1.84 0.95,3.2 0,1.37 -0.32,2.45 -0.95,3.23 -0.63,0.77 -1.48,1.15 -2.57,1.15zm-0.93 -7.4l0 6.06 0.86 0c0.65,0 1.15,-0.26 1.51,-0.79 0.35,-0.52 0.53,-1.27 0.53,-2.25 0,-0.96 -0.18,-1.7 -0.54,-2.23 -0.36,-0.52 -0.86,-0.79 -1.5,-0.79l-0.86 0zm9.97 7.4l-4.31 0 0 -8.74 4.17 0 0 1.33 -2.66 0 0 2.34 2.14 0 0 1.33 -2.14 0 0 2.41 2.8 0 0 1.33zm7.89 0l-4.32 0 0 -8.74 1.51 0 0 7.41 2.81 0 0 1.33zm1.7 0l-1.5 0 2.29 -8.74 1.63 0 2.3 8.74 -1.5 0 -0.54 -2.25 -2.15 0 -0.53 2.25zm1.35 -5.86l-0.57 2.35 1.66 0 -0.55 -2.35 -0.26 -1.35 -0.04 0c-0.08,0.52 -0.16,0.97 -0.24,1.35z"/>
   <path class="fil0" d="M8.66 38.26l-5.59 0 0 -20.13 5.59 0c2.51,0 4.49,0.88 5.92,2.66 1.46,1.78 2.19,4.24 2.19,7.38 0,3.15 -0.73,5.63 -2.19,7.43 -1.43,1.77 -3.41,2.66 -5.92,2.66zm-2.13 -17.04l0 13.95 1.98 0c1.5,0 2.65,-0.6 3.46,-1.81 0.82,-1.21 1.22,-2.94 1.22,-5.19 0,-2.22 -0.41,-3.93 -1.23,-5.14 -0.82,-1.21 -1.97,-1.81 -3.45,-1.81l-1.98 0zm22.97 17.04l-9.92 0 0 -20.13 9.58 0 0 3.06 -6.12 0 0 5.39 4.93 0 0 3.06 -4.93 0 0 5.56 6.46 0 0 3.06zm6.07 0l-3.46 0 0 -20.13 9.34 0 0 3.06 -5.88 0 0 5.81 4.91 0 0 3.07 -4.91 0 0 8.19zm18.21 0l-9.92 0 0 -20.13 9.58 0 0 3.06 -6.12 0 0 5.39 4.93 0 0 3.06 -4.93 0 0 5.56 6.46 0 0 3.06zm5.87 0l-3.26 0 0 -20.13 3.63 0 5.19 11.4c0.23,0.51 0.52,1.36 0.88,2.55l0.14 0.51 0.12 0c-0.13,-1.19 -0.2,-2.22 -0.2,-3.09l0 -11.37 3.23 0 0 20.13 -3.6 0 -5.19 -11.43c-0.25,-0.6 -0.54,-1.46 -0.88,-2.58l-0.14 -0.48 -0.11 0c0.13,1.19 0.19,2.22 0.19,3.09l0 11.4zm12.17 -1.61l1.62 -2.95c1.04,1.13 2.2,1.7 3.49,1.7 0.73,0 1.33,-0.23 1.78,-0.7 0.46,-0.46 0.69,-1.06 0.69,-1.8 0,-0.49 -0.14,-0.94 -0.4,-1.36 -0.27,-0.42 -0.61,-0.78 -1.02,-1.09 -0.42,-0.31 -0.88,-0.62 -1.38,-0.94 -0.5,-0.31 -1,-0.65 -1.5,-1.02 -0.5,-0.37 -0.96,-0.77 -1.38,-1.2 -0.41,-0.44 -0.75,-0.98 -1.02,-1.62 -0.26,-0.64 -0.4,-1.36 -0.4,-2.16 0,-1.66 0.54,-3.03 1.62,-4.11 1.08,-1.08 2.54,-1.62 4.37,-1.62 1.68,0 3.17,0.45 4.45,1.34l-1.25 3.06c-0.36,-0.3 -0.85,-0.57 -1.47,-0.81 -0.62,-0.23 -1.18,-0.35 -1.67,-0.35 -0.82,0 -1.45,0.23 -1.9,0.69 -0.46,0.47 -0.69,1.06 -0.69,1.78 0,1.15 0.84,2.21 2.5,3.17 0.66,0.36 1.2,0.68 1.62,0.97 0.41,0.28 0.89,0.67 1.42,1.17 0.52,0.5 0.92,1.09 1.19,1.75 0.26,0.66 0.39,1.4 0.39,2.21 0,1.66 -0.51,3.05 -1.53,4.17 -1.02,1.12 -2.46,1.67 -4.31,1.67 -2.04,0 -3.78,-0.65 -5.22,-1.95zm12.88 -8.6c0,-3.02 0.74,-5.49 2.21,-7.4 1.48,-1.91 3.44,-2.87 5.9,-2.87 2.46,0 4.43,0.96 5.9,2.87 1.48,1.91 2.21,4.39 2.21,7.43 0,3.12 -0.73,5.65 -2.21,7.6 -1.47,1.95 -3.44,2.92 -5.9,2.92 -2.48,0 -4.45,-0.97 -5.93,-2.92 -1.45,-1.96 -2.18,-4.51 -2.18,-7.63zm3.55 0c0,2.21 0.4,3.97 1.21,5.28 0.82,1.3 1.93,1.95 3.35,1.95 1.4,0 2.51,-0.64 3.32,-1.94 0.81,-1.29 1.22,-3.05 1.22,-5.26 0,-2.15 -0.4,-3.86 -1.21,-5.11 -0.8,-1.24 -1.91,-1.87 -3.33,-1.87 -1.42,0 -2.53,0.63 -3.35,1.87 -0.81,1.25 -1.21,2.95 -1.21,5.08zm18.91 10.21l-3.46 0 0 -20.13 5.85 0c0.94,0 1.82,0.2 2.63,0.62 0.93,0.45 1.67,1.15 2.22,2.08 0.54,0.94 0.82,2.03 0.82,3.28 0,1.21 -0.28,2.31 -0.82,3.3 -0.55,1 -1.26,1.74 -2.13,2.23l0 0.06c0.21,0.3 0.41,0.66 0.59,1.07l3.35 7.49 -3.8 0 -3.06 -7.51 -2.19 0 0 7.51zm0 -17.04l0 6.46 1.85 0c0.75,0 1.39,-0.3 1.91,-0.9 0.52,-0.61 0.78,-1.4 0.78,-2.39 0,-1.25 -0.36,-2.14 -1.08,-2.69 -0.49,-0.32 -1.01,-0.48 -1.56,-0.48l-1.9 0zm14.64 17.04l-3.46 0 0 -20.13 3.46 0 0 20.13zm-0.48 -21.47l-2.67 0 1.73 -3.88 3.4 0 -2.46 3.88zm5.9 21.47l-3.46 0 5.27 -20.13 3.75 0 5.3 20.13 -3.46 0 -1.25 -5.19 -4.93 0 -1.22 5.19zm3.09 -13.5l-1.31 5.42 3.83 0 -1.27 -5.42 -0.6 -3.12 -0.09 0c-0.18,1.19 -0.37,2.23 -0.56,3.12zm25.87 13.5l-5.59 0 0 -20.13 5.59 0c2.51,0 4.49,0.88 5.92,2.66 1.46,1.78 2.19,4.24 2.19,7.38 0,3.15 -0.73,5.63 -2.19,7.43 -1.43,1.77 -3.41,2.66 -5.92,2.66zm-2.13 -17.04l0 13.95 1.98 0c1.5,0 2.65,-0.6 3.46,-1.81 0.82,-1.21 1.22,-2.94 1.22,-5.19 0,-2.22 -0.41,-3.93 -1.23,-5.14 -0.82,-1.21 -1.97,-1.81 -3.45,-1.81l-1.98 0zm22.97 17.04l-9.92 0 0 -20.13 9.58 0 0 3.06 -6.12 0 0 5.39 4.93 0 0 3.06 -4.93 0 0 5.56 6.46 0 0 3.06zm12.57 0l-9.96 0 0 -20.13 3.46 0 0 17.07 6.5 0 0 3.06z"/>
  </g>
 </g>
</svg>