<?xml version="1.0" encoding="UTF-8"?>
<!DOCTYPE svg PUBLIC "-//W3C//DTD SVG 1.1//EN" "http://www.w3.org/Graphics/SVG/1.1/DTD/svg11.dtd">
<!-- Creator: CorelDRAW 2019 (64-Bit) -->
<svg xmlns="http://www.w3.org/2000/svg" xml:space="preserve" width="166px" height="84px" version="1.1" style="shape-rendering:geometricPrecision; text-rendering:geometricPrecision; image-rendering:optimizeQuality; fill-rule:evenodd; clip-rule:evenodd"
viewBox="0 0 166 84"
 xmlns:xlink="http://www.w3.org/1999/xlink">
 <defs>
  <style type="text/css">
   <![CDATA[
    .fil1 {fill:#F7C034;fill-rule:nonzero}
    .fil0 {fill:white;fill-rule:nonzero}
   ]]>
  </style>
 </defs>
 <g id="Capa_x0020_1">
  <metadata id="CorelCorpID_0Corel-Layer"/>
  <g id="_394490668608">
   <path class="fil0" d="M11.27 66.55l-4.2 0 0 -5.07 3.32 0 0.88 0c1.44,0 2.6,1.15 2.6,2.54 0,1.39 -1.16,2.53 -2.6,2.53zm154.4 17.37l-16.34 -43.46 -14.67 0 -12.02 32.05 8.9 0 10.44 -26.37 14.8 37.78 8.89 0zm-54.43 -30.32l0 18.96 8.55 0 0 -18.96 8.06 0 0 -8.15 -24.7 0 0 8.15 8.09 0zm-21.96 12.25c-3.41,0 -6.18,-2.98 -6.18,-6.67 0,-3.66 2.77,-6.65 6.18,-6.65 3.4,0 6.18,2.99 6.18,6.65 0,3.69 -2.78,6.67 -6.18,6.67zm11.79 -13.2l-0.01 -0.03c-2.26,-4.33 -6.69,-7.29 -11.78,-7.29 -7.39,0 -13.39,6.22 -13.39,13.85 0,7.66 6,13.87 13.39,13.87 7.38,0 13.38,-6.21 13.38,-13.87 0,-2.35 -0.57,-4.58 -1.59,-6.53zm-37.13 10.62l3.14 0 0 1.45c-1.16,0.73 -2.55,1.13 -3.95,1.13 -3.9,0 -7.09,-2.98 -7.09,-6.67 0,-3.66 3.19,-6.65 7.09,-6.65 1.86,0 3.61,0.67 4.94,1.89l0.7 0.64 4.86 -5.31 -0.69 -0.64c-2.67,-2.44 -6.15,-3.78 -9.81,-3.78 -7.87,0 -14.29,6.22 -14.29,13.85 0,7.66 6.42,13.87 14.29,13.87 1.35,0 2.67,-0.18 3.95,-0.54l0 0.06 7.21 0 0 -16.5 -10.35 0 0 7.2zm-29.86 2.58c-3.4,0 -6.18,-2.98 -6.18,-6.67 0,-3.66 2.78,-6.65 6.18,-6.65 3.41,0 6.19,2.99 6.19,6.65 0,3.69 -2.78,6.67 -6.19,6.67zm0 -20.52c-7.38,0 -13.38,6.22 -13.38,13.85 0,7.66 6,13.87 13.38,13.87 7.39,0 13.39,-6.21 13.39,-13.87 0,-7.63 -6,-13.85 -13.39,-13.85zm-27.01 6.26l3.32 0c1.43,0 2.6,1.13 2.6,2.53 0,1.4 -1.17,2.53 -2.6,2.53l-3.32 0 0 -5.06zm11.69 2.53c0,-4.57 -3.75,-8.3 -8.37,-8.3l-10.06 0 0 26.5 10.94 0c4.62,0 8.38,-3.72 8.38,-8.3 0,-2.04 -0.77,-4.02 -2.15,-5.54 0.83,-1.31 1.26,-2.8 1.26,-4.36z"/>
   <polygon class="fil1" points="153.07,26.37 161.08,23.09 150.42,19.27 143.59,1 136.5,14.46 122.05,11.49 132.25,22.54 127.27,35.91 145.23,29.46 158.33,40.46 "/>
   <polygon class="fil1" points="123.19,27.09 126.48,24.98 122.54,24.15 121.42,20.23 119.85,23.57 113.9,22.31 118.55,27.11 117.13,30.99 121.31,28.3 124.54,30.92 "/>
   <polygon class="fil1" points="158.66,7.24 162.09,5.04 157.98,4.17 156.81,0.08 154.82,3.49 148.96,2.25 153.81,7.26 152.33,11.31 156.69,8.5 160.07,11.23 "/>
  </g>
 </g>
</svg>
