<?xml version="1.0" encoding="UTF-8"?>
<!DOCTYPE svg PUBLIC "-//W3C//DTD SVG 1.1//EN" "http://www.w3.org/Graphics/SVG/1.1/DTD/svg11.dtd">
<!-- Creator: CorelDRAW 2019 (64-Bit) -->
<svg xmlns="http://www.w3.org/2000/svg" xml:space="preserve" width="73px" height="73px" version="1.1" style="shape-rendering:geometricPrecision; text-rendering:geometricPrecision; image-rendering:optimizeQuality; fill-rule:evenodd; clip-rule:evenodd"
viewBox="0 0 73 73"
 xmlns:xlink="http://www.w3.org/1999/xlink">
 <defs>
  <style type="text/css">
   <![CDATA[
    .fil1 {fill:black}
    .fil0 {fill:black;fill-rule:nonzero}
   ]]>
  </style>
 </defs>
 <g id="Capa_x0020_1">
  <metadata id="CorelCorpID_0Corel-Layer"/>
  <g id="_394503870320">
   <path class="fil0" d="M5.96 63l-1.35 0 -0.53 -1.4 -2.46 0 -0.51 1.4 -1.32 0 2.4 -6.15 1.32 0 2.45 6.15zm-2.28 -2.44l-0.85 -2.27 -0.83 2.27 1.68 0z"/>
   <polygon class="fil0" points="6.3,63 6.3,56.9 7.54,56.9 7.54,61.96 10.62,61.96 10.62,63 "/>
   <path class="fil0" d="M14.78 60.72l1.2 0.39c-0.18,0.67 -0.49,1.17 -0.92,1.5 -0.43,0.33 -0.98,0.49 -1.63,0.49 -0.82,0 -1.49,-0.28 -2.02,-0.84 -0.53,-0.55 -0.79,-1.32 -0.79,-2.28 0,-1.03 0.26,-1.81 0.79,-2.38 0.53,-0.57 1.23,-0.85 2.09,-0.85 0.75,0 1.37,0.22 1.84,0.66 0.27,0.26 0.48,0.65 0.63,1.14l-1.24 0.29c-0.07,-0.32 -0.22,-0.57 -0.45,-0.76 -0.23,-0.18 -0.51,-0.27 -0.84,-0.27 -0.46,0 -0.83,0.17 -1.11,0.49 -0.29,0.33 -0.43,0.85 -0.43,1.58 0,0.78 0.14,1.33 0.42,1.67 0.28,0.32 0.64,0.49 1.09,0.49 0.33,0 0.62,-0.11 0.85,-0.32 0.24,-0.21 0.41,-0.54 0.52,-1z"/>
   <path class="fil0" d="M22.16 63l-1.36 0 -0.53 -1.4 -2.46 0 -0.51 1.4 -1.32 0 2.39 -6.15 1.32 0 2.47 6.15zm-2.29 -2.44l-0.85 -2.27 -0.83 2.27 1.68 0z"/>
   <polygon class="fil0" points="22.6,63 22.6,56.9 23.84,56.9 23.84,61.96 26.93,61.96 26.93,63 "/>
   <path class="fil0" d="M27.43 56.85l2.27 0c0.51,0 0.9,0.04 1.17,0.12 0.36,0.1 0.67,0.3 0.92,0.57 0.26,0.26 0.46,0.6 0.59,0.99 0.13,0.39 0.2,0.88 0.2,1.45 0,0.51 -0.06,0.95 -0.19,1.31 -0.15,0.45 -0.37,0.81 -0.66,1.09 -0.21,0.21 -0.5,0.37 -0.87,0.49 -0.27,0.08 -0.64,0.13 -1.1,0.13l-2.33 0 0 -6.15zm1.24 1.04l0 4.07 0.93 0c0.35,0 0.59,-0.02 0.75,-0.07 0.2,-0.04 0.37,-0.13 0.5,-0.25 0.14,-0.12 0.24,-0.32 0.33,-0.59 0.08,-0.28 0.12,-0.65 0.12,-1.12 0,-0.48 -0.04,-0.84 -0.12,-1.1 -0.09,-0.25 -0.2,-0.45 -0.35,-0.59 -0.16,-0.14 -0.35,-0.24 -0.58,-0.29 -0.18,-0.04 -0.51,-0.06 -1.02,-0.06l-0.56 0z"/>
   <path class="fil0" d="M33.45 56.28l0.58 -1.25 1.31 0 -1.14 1.25 -0.75 0zm-0.31 0.57l1.24 0 0 6.15 -1.24 0 0 -6.15z"/>
   <path class="fil0" d="M41.13 63l-1.35 0 -0.54 -1.4 -2.45 0 -0.51 1.4 -1.32 0 2.39 -6.15 1.33 0 2.45 6.15zm-2.28 -2.44l-0.85 -2.27 -0.83 2.27 1.68 0z"/>
   <polygon class="fil0" points="44.03,63 44.03,56.85 45.89,56.85 47,61.04 48.11,56.85 49.96,56.85 49.96,63 48.81,63 48.81,58.16 47.59,63 46.39,63 45.18,58.16 45.18,63 "/>
   <path class="fil0" d="M56.6 63l-1.35 0 -0.54 -1.4 -2.46 0 -0.51 1.4 -1.32 0 2.39 -6.15 1.33 0 2.46 6.15zm-2.29 -2.44l-0.85 -2.27 -0.83 2.27 1.68 0z"/>
   <polygon class="fil0" points="57.32,63 57.32,60.41 55.07,56.85 56.53,56.85 57.98,59.28 59.39,56.85 60.82,56.85 58.56,60.42 58.56,63 "/>
   <path class="fil0" d="M60.3 59.96c0,-0.63 0.09,-1.15 0.27,-1.57 0.15,-0.32 0.34,-0.6 0.58,-0.84 0.24,-0.25 0.51,-0.44 0.79,-0.56 0.38,-0.16 0.83,-0.24 1.33,-0.24 0.9,0 1.63,0.28 2.17,0.84 0.54,0.56 0.81,1.34 0.81,2.34 0,1 -0.27,1.77 -0.8,2.33 -0.54,0.56 -1.26,0.84 -2.17,0.84 -0.91,0 -1.63,-0.28 -2.18,-0.84 -0.54,-0.55 -0.8,-1.32 -0.8,-2.3zm1.28 -0.04c0,0.69 0.16,1.23 0.48,1.58 0.31,0.36 0.73,0.54 1.22,0.54 0.49,0 0.9,-0.18 1.22,-0.54 0.32,-0.35 0.48,-0.89 0.48,-1.6 0,-0.7 -0.15,-1.22 -0.47,-1.57 -0.31,-0.35 -0.72,-0.52 -1.23,-0.52 -0.51,0 -0.92,0.18 -1.23,0.52 -0.32,0.36 -0.47,0.88 -0.47,1.59z"/>
   <path class="fil0" d="M66.68 63l0 -6.15 2.61 0c0.65,0 1.13,0.05 1.43,0.17 0.3,0.1 0.54,0.3 0.71,0.59 0.19,0.28 0.27,0.6 0.27,0.97 0,0.46 -0.13,0.83 -0.4,1.14 -0.27,0.3 -0.67,0.49 -1.21,0.57 0.27,0.15 0.49,0.32 0.66,0.51 0.18,0.19 0.41,0.52 0.7,1l0.76 1.2 -1.49 0 -0.89 -1.34c-0.32,-0.48 -0.54,-0.78 -0.66,-0.91 -0.12,-0.12 -0.24,-0.2 -0.37,-0.25 -0.14,-0.04 -0.35,-0.07 -0.63,-0.07l-0.25 0 0 2.57 -1.24 0zm1.24 -3.55l0.92 0c0.6,0 0.96,-0.03 1.11,-0.07 0.15,-0.05 0.26,-0.14 0.35,-0.26 0.08,-0.13 0.12,-0.28 0.12,-0.46 0,-0.21 -0.05,-0.37 -0.16,-0.51 -0.11,-0.12 -0.26,-0.21 -0.47,-0.24 -0.09,-0.01 -0.4,-0.02 -0.9,-0.02l-0.97 0 0 1.56z"/>
   <polygon class="fil0" points="59.82,71.78 60.98,71.78 60.98,72.93 59.82,72.93 "/>
   <path class="fil0" d="M4.18 66.88l2.23 0c0.5,0 0.88,0.04 1.15,0.11 0.35,0.11 0.65,0.29 0.91,0.56 0.25,0.26 0.44,0.59 0.57,0.98 0.14,0.38 0.2,0.86 0.2,1.42 0,0.51 -0.06,0.94 -0.18,1.29 -0.15,0.44 -0.37,0.8 -0.65,1.07 -0.21,0.21 -0.5,0.37 -0.86,0.48 -0.27,0.09 -0.63,0.13 -1.08,0.13l-2.29 0 0 -6.04zm1.22 1.02l0 3.99 0.91 0c0.34,0 0.59,-0.01 0.74,-0.05 0.2,-0.05 0.36,-0.14 0.49,-0.25 0.13,-0.12 0.24,-0.32 0.32,-0.58 0.08,-0.27 0.13,-0.65 0.13,-1.11 0,-0.47 -0.05,-0.82 -0.13,-1.07 -0.08,-0.25 -0.2,-0.45 -0.34,-0.59 -0.15,-0.14 -0.34,-0.23 -0.57,-0.28 -0.17,-0.04 -0.51,-0.06 -1,-0.06l-0.55 0z"/>
   <polygon class="fil0" points="9.65,72.92 9.65,66.88 14.12,66.88 14.12,67.9 10.87,67.9 10.87,69.24 13.9,69.24 13.9,70.26 10.87,70.26 10.87,71.89 14.24,71.89 14.24,72.92 "/>
   <path class="fil0" d="M17.19 66.88l2.42 0c0.47,0 0.83,0.02 1.07,0.06 0.23,0.04 0.44,0.12 0.62,0.25 0.19,0.12 0.35,0.29 0.47,0.5 0.12,0.21 0.18,0.45 0.18,0.7 0,0.29 -0.07,0.55 -0.22,0.78 -0.15,0.24 -0.36,0.42 -0.62,0.53 0.37,0.12 0.65,0.3 0.85,0.55 0.2,0.26 0.29,0.56 0.29,0.91 0,0.28 -0.06,0.55 -0.19,0.81 -0.13,0.26 -0.3,0.47 -0.52,0.62 -0.22,0.16 -0.5,0.25 -0.82,0.29 -0.2,0.02 -0.7,0.03 -1.47,0.04l-2.06 0 0 -6.04zm1.23 1l0 1.4 0.79 0c0.48,0 0.77,-0.01 0.89,-0.02 0.2,-0.03 0.37,-0.1 0.49,-0.22 0.12,-0.12 0.18,-0.27 0.18,-0.47 0,-0.19 -0.05,-0.34 -0.16,-0.46 -0.1,-0.11 -0.25,-0.18 -0.46,-0.21 -0.11,-0.01 -0.46,-0.02 -1.04,-0.02l-0.69 0zm0 2.4l0 1.61 1.12 0c0.44,0 0.72,-0.01 0.84,-0.03 0.18,-0.04 0.33,-0.12 0.45,-0.24 0.11,-0.13 0.17,-0.3 0.17,-0.51 0,-0.19 -0.05,-0.34 -0.13,-0.47 -0.09,-0.12 -0.22,-0.21 -0.38,-0.27 -0.17,-0.06 -0.53,-0.09 -1.09,-0.09l-0.98 0z"/>
   <path class="fil0" d="M22.68 69.93c0,-0.61 0.09,-1.12 0.27,-1.54 0.14,-0.31 0.33,-0.59 0.57,-0.83 0.23,-0.25 0.49,-0.43 0.78,-0.54 0.38,-0.16 0.81,-0.24 1.3,-0.24 0.89,0 1.6,0.27 2.14,0.83 0.53,0.55 0.8,1.32 0.8,2.3 0,0.97 -0.27,1.74 -0.8,2.28 -0.53,0.55 -1.23,0.83 -2.12,0.83 -0.9,0 -1.62,-0.28 -2.14,-0.82 -0.54,-0.55 -0.8,-1.3 -0.8,-2.27zm1.26 -0.04c0,0.69 0.16,1.2 0.47,1.56 0.32,0.35 0.72,0.53 1.21,0.53 0.48,0 0.88,-0.18 1.19,-0.53 0.31,-0.35 0.47,-0.87 0.47,-1.57 0,-0.69 -0.15,-1.21 -0.45,-1.55 -0.31,-0.34 -0.71,-0.51 -1.21,-0.51 -0.51,0 -0.91,0.18 -1.22,0.52 -0.31,0.34 -0.46,0.86 -0.46,1.55z"/>
   <path class="fil0" d="M32.11 70.71l0 -1.03 2.63 0 0 2.4c-0.26,0.25 -0.63,0.47 -1.11,0.66 -0.49,0.19 -0.98,0.28 -1.48,0.28 -0.63,0 -1.18,-0.13 -1.65,-0.4 -0.47,-0.26 -0.82,-0.64 -1.06,-1.13 -0.23,-0.5 -0.36,-1.03 -0.36,-1.61 0,-0.63 0.14,-1.19 0.41,-1.67 0.26,-0.5 0.64,-0.87 1.15,-1.13 0.39,-0.2 0.87,-0.3 1.45,-0.3 0.75,0 1.33,0.15 1.76,0.47 0.42,0.31 0.69,0.75 0.81,1.3l-1.21 0.23c-0.09,-0.29 -0.25,-0.53 -0.48,-0.7 -0.24,-0.17 -0.53,-0.26 -0.88,-0.26 -0.53,0 -0.95,0.17 -1.27,0.51 -0.32,0.34 -0.47,0.83 -0.47,1.5 0,0.71 0.16,1.25 0.48,1.61 0.31,0.36 0.73,0.54 1.25,0.54 0.25,0 0.51,-0.05 0.76,-0.15 0.26,-0.1 0.48,-0.22 0.66,-0.36l0 -0.76 -1.39 0z"/>
   <path class="fil0" d="M35.26 69.93c0,-0.61 0.09,-1.12 0.28,-1.54 0.13,-0.31 0.32,-0.59 0.56,-0.83 0.24,-0.25 0.5,-0.43 0.78,-0.54 0.38,-0.16 0.81,-0.24 1.3,-0.24 0.89,0 1.6,0.27 2.14,0.83 0.53,0.55 0.8,1.32 0.8,2.3 0,0.97 -0.27,1.74 -0.79,2.28 -0.53,0.55 -1.24,0.83 -2.13,0.83 -0.9,0 -1.62,-0.28 -2.14,-0.82 -0.53,-0.55 -0.8,-1.3 -0.8,-2.27zm1.26 -0.04c0,0.69 0.15,1.2 0.47,1.56 0.32,0.35 0.72,0.53 1.2,0.53 0.49,0 0.89,-0.18 1.21,-0.53 0.31,-0.35 0.46,-0.87 0.46,-1.57 0,-0.69 -0.15,-1.21 -0.45,-1.55 -0.3,-0.34 -0.71,-0.51 -1.22,-0.51 -0.5,0 -0.9,0.18 -1.21,0.52 -0.31,0.34 -0.46,0.86 -0.46,1.55z"/>
   <polygon class="fil0" points="42.93,72.92 42.93,67.9 41.14,67.9 41.14,66.88 45.94,66.88 45.94,67.9 44.15,67.9 44.15,72.92 "/>
   <path class="fil0" d="M51.41 72.92l-1.34 0 -0.52 -1.37 -2.42 0 -0.49 1.37 -1.3 0 2.35 -6.04 1.3 0 2.42 6.04zm-2.26 -2.4l-0.83 -2.24 -0.81 2.24 1.64 0zm-1.25 -4.2l0.56 -1.22 1.3 0 -1.13 1.22 -0.73 0z"/>
   <path class="fil0" d="M54.76 66.88l2.23 0c0.5,0 0.89,0.04 1.15,0.11 0.35,0.11 0.66,0.29 0.91,0.56 0.25,0.26 0.45,0.59 0.58,0.98 0.13,0.38 0.19,0.86 0.19,1.42 0,0.51 -0.06,0.94 -0.18,1.29 -0.15,0.44 -0.37,0.8 -0.65,1.07 -0.21,0.21 -0.5,0.37 -0.85,0.48 -0.28,0.09 -0.64,0.13 -1.09,0.13l-2.29 0 0 -6.04zm1.22 1.02l0 3.99 0.91 0c0.34,0 0.59,-0.01 0.74,-0.05 0.2,-0.05 0.36,-0.14 0.5,-0.25 0.12,-0.12 0.23,-0.32 0.31,-0.58 0.09,-0.27 0.12,-0.65 0.12,-1.11 0,-0.47 -0.03,-0.82 -0.12,-1.07 -0.08,-0.25 -0.19,-0.45 -0.35,-0.59 -0.14,-0.14 -0.33,-0.23 -0.56,-0.28 -0.17,-0.04 -0.5,-0.06 -1,-0.06l-0.55 0z"/>
   <path class="fil0" d="M65.17 70.69l1.18 0.38c-0.19,0.65 -0.48,1.15 -0.9,1.47 -0.42,0.32 -0.96,0.48 -1.61,0.48 -0.8,0 -1.46,-0.27 -1.97,-0.82 -0.53,-0.55 -0.79,-1.3 -0.79,-2.25 0,-1 0.27,-1.78 0.79,-2.34 0.52,-0.56 1.2,-0.83 2.04,-0.83 0.74,0 1.35,0.22 1.81,0.66 0.27,0.25 0.48,0.63 0.62,1.11l-1.21 0.29c-0.07,-0.32 -0.22,-0.56 -0.45,-0.75 -0.22,-0.17 -0.5,-0.27 -0.82,-0.27 -0.46,0 -0.82,0.16 -1.1,0.48 -0.28,0.33 -0.41,0.84 -0.41,1.56 0,0.76 0.13,1.31 0.41,1.63 0.27,0.32 0.63,0.49 1.07,0.49 0.33,0 0.61,-0.11 0.84,-0.32 0.23,-0.2 0.4,-0.53 0.5,-0.97z"/>
   <polygon class="fil0" points="66.54,71.79 67.7,71.79 67.7,72.95 66.54,72.95 "/>
   <path class="fil0" d="M14.2 0.98c6.7,3.55 14.9,3.56 21.61,0.05 6.77,3.48 14.88,3.52 21.62,-0.05l0 38.74c0,4.74 -3.96,8.5 -8.8,8.5 -4.67,0 -8.79,0.69 -12.82,3.22 -4.02,-2.57 -8.18,-3.22 -12.87,-3.22 -4.84,0 -8.74,-3.76 -8.74,-8.5l0 -38.74zm40.27 37.32c0,0 0.34,-0.79 0.23,-0.9 -0.17,-0.11 -0.77,0.53 -0.77,0.53 -0.17,-0.48 -0.88,-0.48 -0.88,-0.48l-0.06 0.16c0.55,0.11 0.61,0.74 0.44,1.01 -0.06,0.11 0.55,0.48 0.61,0.37 0.16,-0.26 0.82,-0.48 1.1,0l0.16 -0.1c0,0 -0.28,-0.7 -0.83,-0.59zm2.05 -9.5c-0.66,-0.05 -1.26,0.16 -1.7,0.59 -0.29,0.24 -0.49,0.58 -0.55,0.93 -0.06,-0.18 -0.14,-0.35 -0.22,-0.51 -0.44,-0.94 -0.54,-1.31 -0.48,-1.66 0.6,0.21 1.8,0.51 1.97,-0.52 0,0 -1.44,0.24 -2.04,-0.25 1.25,0.03 2.32,-0.69 2.42,-1.66 0.05,-1 -0.94,-1.91 -2.25,-2.01 -1.33,-0.05 -2.48,0.69 -2.59,1.7 -0.06,0.97 0.87,1.84 2.12,1.95 -0.78,0.33 -1.61,0 -2.01,-0.1 0,0 -0.19,1.23 1.68,0.83 -0.11,1.66 1.73,2.59 0.41,5.22l0.88 0.69c0.34,-0.65 0.51,-1.98 0.25,-3.18 0.57,0.02 1.16,-0.2 1.56,-0.58 0.45,-0.43 0.61,-0.96 0.55,-1.44zm-7.03 -20.63l-0.66 -0.9c-0.67,0.24 -1.22,0.32 -1.7,0.3 0.08,-0.48 0.01,-1.02 -0.28,-1.52 -0.27,-0.53 -0.78,-0.85 -1.31,-0.95 -0.17,0.58 -0.12,1.22 0.21,1.75 0.12,0.22 0.27,0.41 0.45,0.57 -0.97,-0.31 -1.66,-0.95 -2.64,-0.98 0.49,-1.77 -0.78,-1.72 -0.78,-1.72 0.05,0.39 0.34,1.24 -0.05,1.95 -0.02,-1.2 -0.82,-2.16 -1.82,-2.16 -1.1,0 -1.98,1.01 -1.98,2.28 -0.05,1.28 0.77,2.34 1.82,2.34 1.06,0 1.92,-0.95 1.97,-2.17 0.45,0.61 0.12,1.96 0.12,1.96 1.01,-0.04 0.82,-1.26 0.68,-1.84 0.35,0.01 0.75,0.14 1.63,0.61 1.37,0.8 3.41,0.8 4.34,0.48zm-8.58 -0.37c-1.04,-0.05 -1.87,-0.48 -1.92,-1.01 0,-0.47 0.88,-1.01 1.97,-1.01 1.05,0.06 1.61,0.59 1.61,1.07 0.04,0.53 -0.56,1 -1.66,0.95zm-3.19 -0.69c-0.33,0.37 0.06,0.96 0.06,0.96l0.16 0c-0.16,-0.53 0.33,-0.96 0.66,-0.96 0.16,0 0.16,-0.64 0,-0.64 -0.28,0 -0.82,-0.42 -0.55,-0.9l-0.17 -0.05c0,0 -0.43,0.58 -0.1,0.95 0,0 -0.94,0.16 -0.94,0.32 0,0.16 0.88,0.32 0.88,0.32zm-4.51 0c0.33,0 0.83,0.43 0.66,0.96l0.17 0c0,0 0.38,-0.59 0.05,-0.96 0,0 0.88,-0.16 0.88,-0.32 0,-0.16 -0.93,-0.32 -0.93,-0.32 0.32,-0.37 -0.12,-0.95 -0.12,-0.95l-0.16 0.05c0.28,0.48 -0.27,0.9 -0.55,0.9 -0.16,0 -0.16,0.64 0,0.64zm-2.14 2.02c1.04,0 1.87,-1.06 1.81,-2.34 0,-1.27 -0.88,-2.28 -1.98,-2.28 -1,0 -1.79,0.96 -1.82,2.16 -0.38,-0.71 -0.1,-1.56 -0.05,-1.95 0,0 -1.26,-0.05 -0.77,1.72 -0.99,0.03 -1.68,0.67 -2.64,0.98 0.18,-0.16 0.33,-0.35 0.44,-0.57 0.33,-0.53 0.38,-1.17 0.22,-1.75 -0.55,0.1 -1.05,0.42 -1.32,0.95 -0.29,0.5 -0.36,1.04 -0.28,1.52 -0.47,0.02 -1.03,-0.06 -1.7,-0.3l-0.66 0.9c0.94,0.32 2.97,0.32 4.34,-0.48 0.88,-0.47 1.28,-0.6 1.63,-0.61 -0.15,0.58 -0.32,1.8 0.69,1.84 0,0 -0.34,-1.35 0.11,-1.96 0.05,1.22 0.91,2.17 1.98,2.17zm-1.82 -2.28c0,-0.48 0.55,-1.01 1.59,-1.07 1.1,0 1.98,0.54 1.98,1.01 -0.05,0.53 -0.88,0.96 -1.92,1.01 -1.1,0.05 -1.71,-0.42 -1.65,-0.95zm-11.33 0.95c0,0.16 0.67,0.21 0.72,0.05 0,-0.26 0.5,-0.74 0.99,-0.53l0.06 -0.1c0,0 -0.55,-0.48 -1,-0.16 0,0 -0.1,-0.85 -0.27,-0.85 -0.16,-0.05 -0.44,0.8 -0.44,0.8 -0.33,-0.32 -0.99,0.05 -0.99,0.05l0.06 0.16c0.49,-0.21 0.87,0.32 0.87,0.58zm-0.22 4c-0.75,0.27 -1.53,-0.03 -1.97,-0.13 0,0 -0.15,1.23 1.72,0.83 -0.1,0.97 0.49,1.69 0.75,2.64 -0.13,-0.16 -0.3,-0.31 -0.49,-0.44 -0.56,-0.32 -1.21,-0.42 -1.82,-0.32 0.06,0.48 0.33,1 0.88,1.33 0.47,0.31 1.02,0.44 1.54,0.4 -0.02,0.46 -0.14,0.99 -0.44,1.61l0.88 0.69c0.44,-0.85 0.55,-2.81 -0.11,-4.19 -0.45,-0.94 -0.54,-1.31 -0.48,-1.66 0.6,0.21 1.8,0.51 1.97,-0.52 0,0 -1.35,0.22 -1.98,-0.21 1.23,-0.03 2.26,-0.75 2.36,-1.69 0.06,-1.01 -0.94,-1.92 -2.25,-1.97 -1.32,-0.1 -2.48,0.64 -2.59,1.64 -0.05,0.95 0.82,1.81 2.03,1.99zm0.56 -3.58c0.49,0.06 0.88,0.91 0.82,1.97 -0.05,1.01 -0.6,1.54 -1.1,1.48 -0.55,-0.05 -0.99,-0.63 -0.93,-1.64 0.05,-1.06 0.66,-1.86 1.21,-1.81zm35 -0.37c0,0.16 0.71,0.11 0.71,-0.05 -0.05,-0.26 0.39,-0.8 0.88,-0.58l0.06 -0.16c0,0 -0.66,-0.37 -0.99,-0.06 0,0 -0.28,-0.84 -0.44,-0.79 -0.17,0 -0.28,0.85 -0.28,0.85 -0.44,-0.32 -0.99,0.16 -0.99,0.16l0.06 0.1c0.49,-0.21 0.99,0.27 0.99,0.53zm0.48 3.98c-0.62,0.43 -1.97,0.21 -1.97,0.21 0.17,1.03 1.37,0.73 1.97,0.52 0.05,0.35 -0.03,0.72 -0.48,1.66 -0.72,1.38 -0.55,3.34 -0.11,4.19l0.88 -0.69c-0.31,-0.62 -0.44,-1.15 -0.47,-1.62 0.53,0.05 1.09,-0.07 1.57,-0.39 0.49,-0.33 0.82,-0.85 0.88,-1.33 -0.61,-0.11 -1.27,0 -1.81,0.32 -0.24,0.15 -0.42,0.32 -0.56,0.51 0.24,-0.98 0.87,-1.71 0.79,-2.71 1.89,0.4 1.74,-0.83 1.74,-0.83 -0.43,0.1 -1.22,0.4 -1.97,0.14 1.21,-0.19 2.08,-1.05 2.02,-2 -0.1,-1 -1.26,-1.74 -2.58,-1.64 -1.32,0.05 -2.31,0.96 -2.26,1.96 0.12,0.95 1.14,1.67 2.36,1.7zm-0.1 -3.61c0.56,-0.05 1.16,0.75 1.21,1.81 0.06,1.01 -0.44,1.59 -0.93,1.64 -0.56,0.06 -1.11,-0.47 -1.16,-1.48 -0.05,-1.06 0.39,-1.91 0.88,-1.97zm0.41 15.23c0,-0.27 0.5,-0.75 0.99,-0.54l0.06 -0.15c0,0 -0.55,-0.43 -0.99,-0.11 0,0 -0.11,-0.85 -0.28,-0.85 -0.16,-0.05 -0.44,0.79 -0.44,0.79 -0.33,-0.31 -0.99,0.06 -0.99,0.06l0.06 0.16c0.49,-0.22 0.93,0.32 0.88,0.58 0,0.16 0.71,0.21 0.71,0.06zm-34.62 -0.64l0.05 -0.16c0,0 -0.66,-0.37 -0.99,-0.06 0,0 -0.28,-0.84 -0.44,-0.79 -0.16,0 -0.27,0.85 -0.27,0.85 -0.44,-0.32 -0.99,0.1 -0.99,0.1l0.05 0.16c0.5,-0.21 0.99,0.27 0.99,0.54 0.06,0.15 0.71,0.1 0.71,-0.06 -0.05,-0.26 0.39,-0.8 0.89,-0.58zm-1.71 11.19l0.88 -0.69c-1.26,-2.63 0.58,-3.56 0.42,-5.21 1.87,0.38 1.73,-0.84 1.73,-0.84 -0.46,0.1 -1.29,0.43 -2.06,0.1 1.24,-0.11 2.16,-0.98 2.11,-1.95 -0.11,-1.01 -1.26,-1.75 -2.58,-1.7 -1.33,0.1 -2.31,1.01 -2.26,2.01 0.11,0.97 1.17,1.69 2.42,1.66 -0.59,0.48 -2.03,0.25 -2.03,0.25 0.16,1.03 1.36,0.73 1.96,0.52 0.05,0.35 -0.03,0.72 -0.48,1.66 -0.08,0.17 -0.14,0.34 -0.2,0.51 -0.05,-0.34 -0.24,-0.68 -0.57,-0.93 -0.44,-0.43 -1.04,-0.64 -1.65,-0.59 -0.11,0.48 0.06,1.01 0.5,1.44 0.41,0.39 1.01,0.6 1.58,0.58 -0.25,1.2 -0.11,2.53 0.23,3.18zm-0.33 -8.22c-0.05,-1.06 0.33,-1.91 0.83,-1.97 0.55,-0.05 1.15,0.75 1.21,1.81 0.05,1.01 -0.39,1.59 -0.94,1.64 -0.49,0.06 -1.04,-0.48 -1.1,-1.48zm35.07 -0.16c0.05,-1.06 0.65,-1.86 1.21,-1.81 0.49,0.06 0.93,0.91 0.87,1.97 -0.05,1 -0.6,1.54 -1.15,1.48 -0.49,-0.05 -0.99,-0.63 -0.93,-1.64zm-34.59 13.37c0.05,0.11 0.65,-0.26 0.54,-0.37 -0.16,-0.27 -0.05,-0.9 0.5,-1.01l-0.05 -0.16c0,0 -0.72,0 -0.89,0.48 0,0 -0.6,-0.64 -0.77,-0.53 -0.16,0.11 0.22,0.9 0.22,0.9 -0.54,-0.11 -0.82,0.59 -0.82,0.59l0.11 0.1c0.33,-0.48 0.99,-0.26 1.16,0zm4.56 4.67c-0.93,-0.47 -1.24,-0.71 -1.42,-1.04 0.59,-0.18 1.75,-0.63 1.26,-1.51 0,0 -1.04,0.99 -1.8,0.92 1.06,-0.7 1.44,-1.9 0.86,-2.72 -0.55,-0.85 -1.92,-0.96 -3.03,-0.27 -1.1,0.69 -1.53,1.97 -0.98,2.82 0.58,0.83 1.85,0.99 2.94,0.31 -0.43,0.73 -1.33,0.97 -1.74,1.12 0,0 0.63,1.08 1.9,-0.3 0.57,0.84 1.5,1.07 2.3,1.68 -0.22,-0.06 -0.47,-0.08 -0.73,-0.05 -0.66,0 -1.26,0.31 -1.65,0.73 0.33,0.38 0.93,0.64 1.6,0.59 0.51,-0.05 1.03,-0.25 1.45,-0.58 0.27,0.38 0.49,0.87 0.63,1.53l1.16 0.05c-0.22,-0.95 -1.32,-2.59 -2.75,-3.28zm-2.14 -1.65c-0.44,0.27 -1.16,0.06 -1.77,-0.79 -0.6,-0.85 -0.6,-1.81 -0.16,-2.07 0.44,-0.26 1.32,0.16 1.93,1.01 0.54,0.85 0.44,1.59 0,1.85zm10.81 3.5c-0.28,-0.05 -0.72,-0.58 -0.39,-1l-0.17 -0.11c0,0 -0.55,0.48 -0.27,0.95 0,0 -0.88,0 -0.94,0.11 -0.05,0.16 0.83,0.53 0.83,0.53 -0.44,0.32 -0.17,0.96 -0.17,0.96l0.17 0c-0.11,-0.53 0.49,-0.85 0.82,-0.8 0.12,0.06 0.28,-0.58 0.12,-0.64zm6.54 0.91c-0.98,0.27 -1.38,0.28 -1.75,0.19 0.29,-0.53 0.75,-1.61 -0.28,-1.89 0,0 0.04,1.32 -0.52,1.81 0.17,-1.19 -0.42,-2.25 -1.41,-2.5 -1.04,-0.21 -2.09,0.64 -2.37,1.91 -0.21,1.22 0.39,2.39 1.44,2.65 1,0.21 2.01,-0.58 2.28,-1.73 0.2,0.77 -0.27,1.5 -0.42,1.89 0,0 1.26,0.37 1.14,-1.45 1,0.19 1.84,-0.27 2.85,-0.39 -0.21,0.11 -0.41,0.24 -0.57,0.41 -0.39,0.48 -0.61,1.11 -0.61,1.7 0.55,0 1.1,-0.22 1.54,-0.69 0.37,-0.37 0.59,-0.88 0.61,-1.39 0.48,0.08 0.99,0.27 1.59,0.64l0.88 -0.74c-0.83,-0.53 -2.86,-0.9 -4.4,-0.42zm-2.7 0.21c-0.11,0.53 -0.82,0.9 -1.87,0.69 -1.04,-0.21 -1.76,-0.9 -1.65,-1.38 0.12,-0.48 1.05,-0.74 2.15,-0.59 1.04,0.22 1.48,0.8 1.37,1.28zm18.66 -7.59c-1.1,-0.69 -2.48,-0.58 -3.03,0.27 -0.58,0.82 -0.19,2.02 0.81,2.73 -0.76,0.03 -1.74,-0.93 -1.74,-0.93 -0.5,0.88 0.65,1.33 1.25,1.51 -0.18,0.33 -0.48,0.57 -1.42,1.04 -1.42,0.69 -2.53,2.33 -2.75,3.28l1.16 -0.05c0.14,-0.66 0.36,-1.15 0.63,-1.53 0.4,0.33 0.89,0.53 1.46,0.58 0.65,0.05 1.21,-0.21 1.59,-0.59 -0.44,-0.42 -0.99,-0.74 -1.65,-0.74 -0.26,-0.02 -0.51,0 -0.73,0.06 0.8,-0.61 1.73,-0.84 2.3,-1.68 1.27,1.38 1.89,0.3 1.89,0.3 -0.39,-0.15 -1.25,-0.38 -1.7,-1.07 1.12,0.62 2.34,0.44 2.92,-0.36 0.55,-0.85 0.11,-2.13 -0.99,-2.82zm-0.23 2.18c-0.6,0.85 -1.32,1.06 -1.76,0.79 -0.49,-0.26 -0.6,-1 0,-1.85 0.61,-0.85 1.49,-1.27 1.93,-1.01 0.44,0.26 0.44,1.22 -0.17,2.07zm-31.8 -5.47c0,3.1 2.37,5.63 5.63,5.63 3.19,0 5.81,0.35 8.58,2.08 2.74,-1.72 5.35,-2.08 8.51,-2.08 3.27,0 6.04,-2.53 6.04,-5.63l0.03 -26.04c-3.52,1.83 -11.05,0.63 -14.41,-1.13 -3.33,1.74 -10.94,2.98 -14.4,1.13l0.02 26.04z"/>
   <path class="fil0" d="M23.99 29.96c-0.17,-0.26 -0.88,-0.47 -1.21,0l-0.11 -0.1c0,0 0.27,-0.74 0.82,-0.64 0,0 -0.33,-0.9 -0.16,-1 0.16,-0.06 0.82,0.63 0.82,0.63 0.17,-0.53 0.99,-0.53 0.99,-0.53l0 0.21c-0.55,0.06 -0.66,0.8 -0.49,1.06 0.05,0.16 -0.55,0.53 -0.66,0.37z"/>
   <path class="fil0" d="M32.35 34.9c0.05,0.64 -0.11,1.27 -0.61,1.8 -0.43,0.53 -1.04,0.8 -1.65,0.8 -0.05,-0.64 0.17,-1.33 0.61,-1.85 0.5,-0.48 1.1,-0.75 1.65,-0.75z"/>
   <path class="fil0" d="M47.64 29.96c0.16,-0.26 0.88,-0.47 1.21,0l0.11 -0.1c0,0 -0.27,-0.74 -0.82,-0.64 0,0 0.33,-0.9 0.16,-1 -0.16,-0.06 -0.82,0.63 -0.82,0.63 -0.17,-0.53 -1,-0.53 -1,-0.53l0 0.21c0.56,0.06 0.67,0.8 0.5,1.06 -0.05,0.16 0.55,0.53 0.66,0.37z"/>
   <path class="fil0" d="M39.28 34.9c-0.06,0.64 0.11,1.27 0.61,1.8 0.44,0.53 1.04,0.8 1.65,0.8 0.05,-0.64 -0.17,-1.33 -0.61,-1.85 -0.5,-0.48 -1.1,-0.75 -1.65,-0.75z"/>
   <path class="fil0" d="M34.48 14.64c0,-0.32 0.22,-0.53 0.55,-0.53 0.27,0 0.49,0.21 0.49,0.53 0,0.26 -0.22,0.47 -0.49,0.47 -0.33,0 -0.55,-0.21 -0.55,-0.47zm2.53 -1.59l1.1 -1.7 -1.71 0.64 -0.6 -1.54 -0.66 1.54 -1.76 -0.64 1.15 1.7 2.48 0zm0.63 15.51c-0.91,-0.7 0.12,-1 0.36,-0.77 2.25,1.91 4.29,0.59 4.29,0.59 -1.6,-0.54 -2.37,-2.34 -2.37,-2.34 3.3,1.91 5.83,-0.26 5.83,-0.26 -2.19,0.37 -3.9,-1.7 -3.9,-1.7 3.41,0.8 5.77,-1.49 5.77,-1.49 -1.26,0.11 -4.4,-1.22 -4.4,-1.22 5.01,-0.15 5.45,-3.71 5.5,-3.71 -1.37,0.9 -5.06,0.48 -5.06,0.48 5.23,-1.86 4.84,-6.15 4.84,-6.15 -1.1,1.64 -6.15,3.23 -6.15,3.23 -1.38,0.42 -2.48,1.65 -2.48,3.07 -0.06,0.59 -0.6,1.06 -1.21,1.06 -1.34,0 -1.32,-1.94 -1.32,-2.86 0,-1.38 -0.06,-2.97 -1.05,-2.97l-1.98 0c-0.36,0 -0.97,-0.04 -1.22,0.27 -0.52,0.6 -0.44,2.17 -0.21,1.85 0,0 0.77,-0.21 1.27,0 0.63,0.19 0.16,2.17 0.16,2.61 0,0.58 -0.55,1.1 -1.21,1.1 -0.6,0 -1.15,-0.47 -1.21,-1.06 0,-1.42 -1.1,-2.65 -2.42,-3.07 0,0 -5.17,-1.59 -6.27,-3.23 0,0 -0.38,4.34 4.9,6.26 0,0 -3.74,0.31 -5.12,-0.59 0.06,0 0.71,3.71 5.72,3.87 0,0 -3.3,1.12 -4.51,0.96 0,0 2.37,2.7 5.89,1.91 0,0 -1.93,1.75 -4.13,1.38 0,0 2.48,2.22 5.83,0.37 0,0 -0.71,1.69 -2.31,2.23 0,0 2.04,1.32 4.34,-0.59 0.3,-0.33 1.24,0.05 0.3,0.77 -1.26,0.96 -3.05,1.19 -3.81,2.79l0.92 0.18c-1.04,1.05 -2.43,2.54 -2.57,2.57 0,0 -0.33,-0.47 -1.38,0.06 -0.55,0.26 -0.82,0.95 -0.44,1.22 0,0 -0.16,0.85 0.83,0.79 0,0 0.38,0.69 1.21,0.16 0.77,-0.53 -0.06,-0.37 -0.17,-0.58 -0.11,-0.17 0.06,-0.1 0.06,-0.1 0.38,-0.07 0.88,-0.49 0.55,-0.86 -0.04,-0.07 1.79,-1.2 3.13,-2.02l0.17 0.86c0.46,-0.62 1.13,-1.04 1.91,-1.27 -0.83,1.13 -1.33,2.43 -1.03,4.24 0,0 0.22,-0.69 1.32,-0.8 0,0 -1.54,1.86 0.93,5.47 2.47,-3.61 1.05,-5.47 1.05,-5.47 1.09,0.11 1.37,0.8 1.37,0.8 0.25,-1.83 -0.22,-3.14 -1.1,-4.28 0.8,0.22 1.43,0.66 1.93,1.31l0.17 -0.88c1.33,0.82 3.16,1.97 3.13,2.04 -0.34,0.37 0.21,0.79 0.55,0.86 0,0 0.11,-0.07 0.05,0.1 -0.11,0.21 -0.94,0.05 -0.16,0.58 0.77,0.53 1.21,-0.16 1.21,-0.16 0.98,0.06 0.82,-0.79 0.82,-0.79 0.39,-0.27 0.11,-0.96 -0.49,-1.22 -1.05,-0.53 -1.38,-0.06 -1.38,-0.06 -0.11,-0.03 -1.48,-1.52 -2.51,-2.58l0.91 -0.17c-0.66,-1.53 -2.44,-1.87 -3.65,-2.79z"/>
   <path class="fil1" d="M42.52 39.3c0.21,-1.11 -0.34,-3.46 2.28,-5.2 0.81,0.94 1.56,1.29 2.18,0.43 -0.87,-0.24 -1.51,-0.6 -1.86,-1.12 1.21,0.59 2.23,0.57 3,-0.25 0.72,-0.87 0.42,-2.37 -0.97,-3.25 -1.26,-0.8 -2.63,-0.58 -3.3,0.37 -0.53,0.89 -0.29,2.12 0.99,2.95 -0.49,0.05 -1.11,-0.28 -1.88,-1.03 -0.35,0.7 0.01,1.22 1.04,1.56 -1.8,1.25 -2.53,3.24 -2.74,5.6l1.26 -0.06zm4.46 -7c0.6,-0.95 0.6,-2.02 0.11,-2.28 -0.5,-0.27 -1.43,0.21 -2.03,1.16 -0.66,0.91 -0.5,1.7 0,1.97 0.49,0.32 1.26,0.1 1.92,-0.85z"/>
   <path class="fil1" d="M29.11 39.3c-0.21,-1.11 0.34,-3.46 -2.29,-5.2 -0.8,0.94 -1.55,1.29 -2.17,0.43 0.87,-0.24 1.5,-0.6 1.85,-1.12 -1.21,0.59 -2.23,0.57 -2.99,-0.25 -0.72,-0.87 -0.42,-2.37 0.97,-3.25 1.26,-0.8 2.62,-0.58 3.3,0.37 0.53,0.89 0.28,2.12 -0.99,2.95 0.48,0.05 1.1,-0.28 1.87,-1.03 0.35,0.7 0,1.22 -1.04,1.56 1.81,1.25 2.54,3.24 2.75,5.6l-1.26 -0.06zm-4.46 -7c-0.61,-0.95 -0.61,-2.02 -0.11,-2.28 0.49,-0.27 1.42,0.21 2.03,1.16 0.66,0.91 0.5,1.7 0,1.97 -0.49,0.32 -1.26,0.1 -1.92,-0.85z"/>
  </g>
 </g>
</svg>
